# xmcd
#
# Track frame offsets: 
#        150
#        19379
#        41047
#        62612
#        94419
#        117181
#        141404
#        157148
#        185368
#        214965
#        241278
#
# Disc length: 3547 seconds
#
# Revision: 0
# Processed by: cddbd v1.5.2PL0 Copyright (c) Steve Scherf et al.
# Submitted via: ExactAudioCopy v1.0b1
#
DISCID=a50dd90b
DTITLE=La Grande Zaza - La Grande Zaza
DYEAR=2014
DGENRE=Acoustic
TTITLE0=Ce qui me plait
TTITLE1=Mardi Gras
TTITLE2=Salut B
TTITLE3=Nothing
TTITLE4=Alice
TTITLE5=La Vie Est Un Roman
TTITLE6=Au-dela de la Vigne
TTITLE7=Eurosatory
TTITLE8=Zephyr
TTITLE9=Sans Trop Mal Y Penser
TTITLE10=La Mort Des Abeilles (LP edit)
EXTD=
EXTT0=
EXTT1=
EXTT2=
EXTT3=
EXTT4=
EXTT5=
EXTT6=
EXTT7=
EXTT8=
EXTT9=
EXTT10=
PLAYORDER=
